# xmcd CD database file
#
# Track frame offsets:
#	150
#	14651
#	30343
#	46118
#	63454
#	80745
#	95587
#	111608
#	129595
#	144101
#	159609
#	173381
#	184049
#	199978
#	220573
#	235645
#	249445
#	263923
#	278337
#	300040
#
# Disc length: 4223 seconds
#
# Revision: 0
# Processed by: cddbd v1.5.2PL0 Copyright (c) Steve Scherf et al.
# Submitted via: CDex 1.70beta2
#
DISCID=02107d14
DTITLE=New Country - Various
DYEAR=2006
DGENRE=Country
TTITLE0=Alan Jackson - Summertime Blues
TTITLE1=Brooks and Dunn - My Maria
TTITLE2=Clint Black - Nobody's Home
TTITLE3=Kenny Chesney - You Had Me From Hello
TTITLE4=Ricky Skaggs - Country Boy
TTITLE5=Vince Gill - Oh Carolina
TTITLE6=Troy Cassar-Daley - Little Things
TTITLE7=Bella - She Still Believes
TTITLE8=Montgomery Gentry - Hillbilly Shoes
TTITLE9=Martina McBride - Independence Day
TTITLE10=The Highwaymen - Highwayman
TTITLE11=Ricky Van Shelton - From a Jack To a King
TTITLE12=Mary Chapin Carpenter - I Feel Lucky
TTITLE13=Patty Loveless - Lonely Too Long
TTITLE14=Brad Paysley - Me Neither
TTITLE15=Ricochet - Daddy's Money
TTITLE16=Collin Raye - In This Life
TTITLE17=Mindy McCready - Guys Do It AllThe Time
TTITLE18=Sara Evans - I Could Not Ask For More
TTITLE19=Shenandoah - Two Dozen Roses
EXTD=YEAR: 2006
EXTT0=
EXTT1=
EXTT2=
EXTT3=
EXTT4=
EXTT5=
EXTT6=
EXTT7=
EXTT8=
EXTT9=
EXTT10=
EXTT11=
EXTT12=
EXTT13=
EXTT14=
EXTT15=
EXTT16=
EXTT17=
EXTT18=
EXTT19=
PLAYORDER=
